<svg width="35" height="51" viewBox="0 0 35 51" fill="none" xmlns="http://www.w3.org/2000/svg">
<path d="M6.8479 30.8386V33.4686L8.0949 35.1307C8.3219 35.4335 8.44941 35.8441 8.44941 36.2721C8.44941 36.7002 8.3219 37.1108 8.0949 37.4136L7.03337 38.8285L8.09884 40.2434C8.32584 40.5462 8.45336 40.9568 8.45336 41.3848C8.45336 41.8129 8.32584 42.2234 8.09884 42.5262L6.8479 44.2094V45.435L8.821 48.065L10.7941 45.435V30.8386C10.7938 30.5766 10.8523 30.3205 10.962 30.1031C11.0716 29.8856 11.2276 29.7168 11.4097 29.6183C11.7863 29.4134 12.1482 29.1634 12.491 28.8714C12.6695 28.6441 12.9071 28.5178 13.1539 28.519C13.3678 28.5176 13.5765 28.6071 13.7496 28.7746C13.9227 28.942 14.0514 29.1786 14.1168 29.45C14.1799 29.7193 14.1755 30.0087 14.1043 30.2744C14.0331 30.5401 13.899 30.7677 13.7222 30.9228C13.4096 31.204 13.084 31.4587 12.7475 31.6855V45.7032C12.7388 46.2245 12.5756 46.72 12.2936 47.0813L9.74046 50.4845C9.49065 50.8147 9.15308 51 8.80127 51C8.44945 51 8.11188 50.8147 7.86207 50.4845L5.31284 47.0813C5.03703 46.7162 4.87974 46.2214 4.87481 45.7032V43.9938C4.87465 43.7174 4.91534 43.4437 4.99456 43.1882C5.07378 42.9328 5.18998 42.7007 5.33651 42.5052L6.16127 41.4059L5.49042 40.5064C5.32683 40.2885 5.19706 40.0298 5.10852 39.7451C5.01998 39.4603 4.97441 39.1551 4.97441 38.8469C4.97441 38.5387 5.01998 38.2334 5.10852 37.9487C5.19706 37.6639 5.32683 37.4053 5.49042 37.1874L6.16521 36.2879L5.34046 35.1886C5.19321 34.9935 5.07629 34.7616 4.99638 34.5062C4.91648 34.2507 4.87516 33.9768 4.87481 33.7V31.6855C3.55524 30.8095 2.422 29.5056 1.57922 27.8934C0.736447 26.2812 0.211166 24.4126 0.0516505 22.4592C-0.107865 20.5058 0.1035 18.5303 0.666324 16.7142C1.22915 14.8981 2.12538 13.2997 3.27266 12.0659C3.47676 11.8543 3.735 11.7581 3.99181 11.7977C4.24863 11.8374 4.4835 12.0099 4.64588 12.278C4.80827 12.5462 4.8852 12.8886 4.86011 13.2316C4.83503 13.5745 4.70994 13.8907 4.51176 14.112C3.58729 15.1066 2.87368 16.4057 2.44155 17.8808C2.00942 19.3559 1.87375 20.9559 2.04796 22.5223C2.22216 24.0888 2.70022 25.5675 3.4348 26.812C4.16939 28.0566 5.13506 29.0239 6.23624 29.6183C6.41765 29.7177 6.57273 29.8868 6.68167 30.1042C6.79062 30.3215 6.84849 30.5772 6.8479 30.8386ZM29.4714 37.9501C29.0559 37.9491 28.6575 37.7299 28.3625 37.3399L27.3207 35.9513C27.0085 35.5318 26.8339 34.9642 26.8353 34.3733V32.3956H25.5923C25.0948 32.3956 24.6176 32.1325 24.2655 31.6641C23.9133 31.1957 23.715 30.5602 23.7139 29.8971V28.235H22.238C21.7948 28.2363 21.3691 28.0037 21.0542 27.588L19.7519 25.8575C17.6199 26.8376 15.3016 26.8254 13.1754 25.8231C11.0493 24.8207 9.24079 22.8873 8.04521 20.3384C6.84962 17.7895 6.33755 14.7757 6.59257 11.7889C6.84759 8.8021 7.85464 6.01873 9.44935 3.89312C11.044 1.76751 13.1322 0.425195 15.373 0.0852738C17.6138 -0.254647 19.8749 0.427905 21.7871 2.02152C23.6994 3.61513 25.1499 6.02569 25.9019 8.85971C26.6539 11.6937 26.663 14.7838 25.9277 17.6256L34.5422 29.1081C34.8339 29.5 34.9983 30.0289 35 30.5809V36.1144C34.999 36.6017 34.853 37.0686 34.5941 37.4127C34.3352 37.7568 33.9845 37.9501 33.6188 37.9501H29.4714ZM28.8084 31.4225V34.2103L29.6411 35.3201H33.0269V30.8071L24.0809 18.8828C23.9418 18.6981 23.8473 18.4623 23.8093 18.2055C23.7713 17.9488 23.7917 17.6828 23.8678 17.4415C24.5886 15.1656 24.6935 12.6264 24.1645 10.2588C23.6355 7.8911 22.5055 5.84216 20.9679 4.46271C19.4304 3.08327 17.5809 2.45912 15.7361 2.6971C13.8913 2.93509 12.166 4.02042 10.8554 5.76728C9.54485 7.51415 8.7306 9.81391 8.55205 12.2729C8.37351 14.7318 8.84177 17.197 9.87667 19.2465C10.9116 21.2959 12.4488 22.8021 14.2251 23.5073C16.0014 24.2124 17.9063 24.0726 19.6138 23.1118C19.7948 23.0103 19.9944 22.9832 20.187 23.0338C20.3796 23.0844 20.5565 23.2104 20.6951 23.3958L22.3525 25.605H24.444C24.7747 25.605 25.0919 25.7801 25.3257 26.0918C25.5596 26.4035 25.6909 26.8263 25.6909 27.2671V29.7656H27.5654C27.8947 29.767 28.2103 29.942 28.4432 30.2524C28.6761 30.5628 28.8074 30.9835 28.8084 31.4225ZM16.8712 7.97364C17.3752 8.64601 17.6887 9.53051 17.7582 10.4764C17.8278 11.4223 17.6491 12.3711 17.2527 13.1611C16.8562 13.9511 16.2665 14.5335 15.5841 14.8089C14.9016 15.0843 14.1686 15.0358 13.51 14.6716C12.8513 14.3074 12.3078 13.65 11.9721 12.8116C11.6363 11.9731 11.529 11.0054 11.6686 10.0733C11.8081 9.14122 12.1858 8.30248 12.7372 7.69997C13.2887 7.09747 13.9799 6.7685 14.6929 6.76911C15.51 6.77038 16.2934 7.20356 16.8712 7.97364ZM15.4743 9.83566C15.3706 9.69751 15.2476 9.58792 15.1122 9.51316C14.9767 9.43839 14.8316 9.39991 14.685 9.39991C14.5385 9.39991 14.3933 9.43839 14.2579 9.51316C14.1225 9.58792 13.9994 9.69751 13.8958 9.83566C13.7922 9.97381 13.7099 10.1378 13.6538 10.3183C13.5978 10.4988 13.5689 10.6923 13.5689 10.8876C13.5689 11.083 13.5978 11.2765 13.6538 11.457C13.7099 11.6375 13.7922 11.8015 13.8958 11.9396C14.1077 12.2122 14.3906 12.3645 14.685 12.3645C14.9795 12.3645 15.2624 12.2122 15.4743 11.9396C15.5792 11.802 15.6625 11.6381 15.7196 11.4572C15.7766 11.2764 15.8062 11.0823 15.8065 10.8861C15.8069 10.6899 15.7781 10.4956 15.7217 10.3144C15.6654 10.1332 15.5826 9.96869 15.4782 9.8304L15.4743 9.83566Z" fill="black"/>
</svg>
