<svg width="35" height="51" viewBox="0 0 35 51" fill="none" xmlns="http://www.w3.org/2000/svg">
<path d="M12.1325 41.5707C14.1576 38.6233 14.5374 36.5356 15.3812 33.6496C16.9001 28.553 16.3094 29.5355 18.5033 26.3424C19.98 24.1933 31.1184 7.92115 31.7513 7.00009C32.3842 6.07903 33.4389 5.58779 34.0718 5.58779C34.7047 5.58779 35 4.60532 35 4.2369C35 3.86847 34.2406 2.33336 33.5233 1.28949C32.8061 0.245617 32.342 0 32.0888 0C31.8357 0 31.1606 0.42983 31.1606 1.35089C31.1606 2.27196 30.8231 3.80707 30.1902 4.72813C29.5574 5.6492 18.4189 21.9213 16.9422 24.0705C14.7483 27.2635 15.4234 26.4653 11.9215 28.6144C9.98073 29.8425 8.54624 30.3951 6.52107 33.3425C5.71944 34.5092 1.37377 40.8339 0.69871 41.8163C0.0236534 42.7988 -0.440448 45.3164 0.656519 46.9743L2.76607 50.0445C3.90523 51.641 5.63506 50.9656 6.31011 49.9831C7.02736 49.0006 11.3308 42.676 12.1325 41.5707ZM11.4996 30.8864L11.7528 30.825C11.7949 30.825 11.8793 30.8864 11.9215 30.9478C12.0059 31.0706 12.0059 31.3162 11.9215 31.439C11.9215 31.439 11.9215 31.439 11.9215 31.5004L9.89635 35.5531C9.68539 35.8601 9.72759 36.2899 9.89635 36.597C10.1073 36.904 10.4026 36.904 10.6136 36.597L13.4404 33.711C13.4404 33.711 13.4404 33.711 13.4826 33.711C13.567 33.5882 13.7357 33.5882 13.8201 33.711C13.8623 33.7724 13.8623 33.8338 13.9045 33.8952L13.8623 34.2636C13.2716 36.3513 12.8075 38.0093 11.2887 40.2812C11.1199 40.5268 10.698 41.1409 10.2339 41.8777V39.6672H7.91337V36.2899H6.3945C6.90079 35.5531 7.28051 35.0005 7.44927 34.6934C8.92596 32.4215 10.0651 31.746 11.4996 30.8864ZM5.00219 38.1321H6.52107V41.5093H8.84157V43.7199C8.41966 44.3339 7.99775 44.9479 7.57584 45.562V43.3514H5.25534V39.9742H3.73646C4.15837 39.3602 4.58028 38.7461 5.00219 38.1321ZM3.65208 48.755L1.54253 45.6848C0.994047 44.8865 1.33157 43.4742 1.58472 43.1058C1.71129 42.9216 2.04882 42.4304 2.42854 41.8777H3.94742V45.255H6.26792V47.4655C5.84601 48.0796 5.55068 48.5094 5.4241 48.6936C5.17096 49.1234 4.24275 49.6147 3.65208 48.755Z" fill="black"/>
</svg>
