<svg width="35" height="51" viewBox="0 0 35 51" fill="none" xmlns="http://www.w3.org/2000/svg">
<mask id="path-1-inside-1" fill="white">
<path d="M24.8856 23.5315C24.8798 22.0085 24.2924 20.7443 23.7227 19.5163C23.1119 18.1979 22.5128 16.9157 22.4893 15.2663C22.4658 13.1593 22.8358 11.6905 23.1589 10.4023C23.3821 9.51735 23.5759 8.72273 23.5759 7.87996C23.5759 6.15227 22.9004 4.59313 21.7963 3.46742C20.7038 2.34171 19.1826 1.64341 17.5029 1.64341C15.8231 1.64341 14.3019 2.34171 13.2036 3.46742C12.1053 4.59313 11.424 6.15227 11.424 7.87996C11.424 8.72273 11.6237 9.51735 11.8469 10.4023C12.1699 11.6905 12.534 13.1593 12.5105 15.2663C12.487 16.9157 11.8938 18.1979 11.283 19.5163C10.7074 20.7443 10.126 22.0085 10.1142 23.5315L10.2846 23.5496C12.6867 23.8686 15.0654 23.977 17.5029 23.983C19.9344 23.977 22.3131 23.8686 24.7153 23.5496L24.8856 23.5315ZM10.5782 34.5057C9.79119 34.8789 9.03353 35.4989 8.46382 36.2454C7.88236 37.0099 7.50647 37.8828 7.50647 38.7075C7.50647 40.6339 8.52843 42.2532 10.1965 43.415C12.0289 44.6912 14.6191 45.4256 17.5029 45.4256C20.3867 45.4256 22.9768 44.6912 24.8034 43.415C26.4714 42.2532 27.4993 40.6339 27.4993 38.7075C27.4993 37.8828 27.1175 37.0099 26.536 36.2454C25.9663 35.4989 25.2145 34.8789 24.4216 34.5057C24.2689 34.6381 24.1045 34.7585 23.94 34.8789C22.2779 36.0708 19.9814 36.7571 17.5029 36.7571C15.0184 36.7571 12.7279 36.0708 11.0657 34.8789C10.8954 34.7585 10.7368 34.6381 10.5782 34.5057ZM25.5787 33.2716C26.4127 33.7532 27.188 34.4455 27.7929 35.2341C28.5858 36.2755 29.1027 37.5035 29.1027 38.7075C29.1027 41.2178 27.8105 43.3067 25.7079 44.7695C23.6111 46.2323 20.7038 47.069 17.5029 47.069C14.296 47.069 11.3887 46.2323 9.29196 44.7695C7.19519 43.3067 5.89718 41.2178 5.89718 38.7075C5.89718 37.5035 6.41403 36.2755 7.20693 35.2341C7.81188 34.4455 8.58716 33.7532 9.42117 33.2716C8.92781 32.5793 8.58716 31.8028 8.43446 30.96C7.21868 31.5319 6.11449 32.4649 5.2335 33.5726C3.97073 35.1498 3.18371 37.0521 3.18371 38.7075C3.18371 41.603 4.75188 44.2397 7.28916 46.1601C9.89104 48.1346 13.4973 49.3566 17.5029 49.3566C21.5026 49.3566 25.1147 48.1346 27.7166 46.1601C30.248 44.2397 31.8161 41.603 31.8161 38.7075C31.8161 37.0521 31.0291 35.1498 29.7664 33.5726C28.8854 32.4649 27.7812 31.5319 26.5654 30.96C26.4127 31.8028 26.072 32.5793 25.5787 33.2716ZM26.6535 29.2263C28.3391 29.8704 29.8486 31.0804 31.0115 32.5312C32.4916 34.3853 33.4196 36.6728 33.4196 38.7075C33.4196 42.1508 31.6047 45.2511 28.668 47.4784C25.796 49.6516 21.8491 51 17.5029 51C13.1507 51 9.20386 49.6516 6.33181 47.4784C3.39515 45.2511 1.58029 42.1508 1.58029 38.7075C1.58029 36.6728 2.50828 34.3853 3.99423 32.5312C5.15127 31.0804 6.66071 29.8704 8.34636 29.2263V28.4196C6.33181 28.1066 4.25852 27.6671 2.13826 27.029C0.769772 26.6197 0.135453 25.6505 0.017987 24.6512C-0.0231262 24.284 0.00624039 23.9108 0.106087 23.5616C0.20006 23.2064 0.364513 22.8754 0.575953 22.5984C1.1163 21.9062 1.95618 21.5329 2.93115 21.858C4.85173 22.5021 6.70183 22.9596 8.51668 23.2787C8.58129 21.4968 9.21561 20.1363 9.83231 18.812C10.3727 17.6501 10.8954 16.5184 10.913 15.2482C10.9365 13.352 10.5958 11.9975 10.2963 10.8056C10.0437 9.80028 9.81469 8.89731 9.81469 7.87996C9.81469 5.7068 10.6781 3.73831 12.07 2.31161C13.462 0.884915 15.3826 0 17.5029 0C19.6173 0 21.5437 0.884915 22.9357 2.31161C24.3218 3.73831 25.1852 5.7068 25.1852 7.87996C25.1852 8.89731 24.9561 9.80028 24.7036 10.8056C24.404 11.9975 24.0692 13.352 24.0927 15.2482C24.1045 16.5184 24.6331 17.6501 25.1675 18.812C25.7842 20.1363 26.4186 21.4968 26.4832 23.2787C28.298 22.9596 30.1481 22.5021 32.0746 21.858C33.0495 21.5329 33.8894 21.9062 34.4239 22.5984C34.6412 22.8754 34.7998 23.2064 34.8996 23.5616C34.9936 23.9108 35.023 24.284 34.9819 24.6512C34.8644 25.6505 34.2301 26.6197 32.8675 27.029C30.7413 27.6671 28.6739 28.1066 26.6535 28.4196V29.2263ZM9.95565 28.6363V29.9607C9.95565 31.4055 10.7309 32.6455 11.9819 33.5365C13.3739 34.5358 15.3415 35.1137 17.5029 35.1137C19.6584 35.1137 21.6259 34.5358 23.0238 33.5365C24.2689 32.6455 25.0501 31.4055 25.0501 29.9607V28.6363L24.9385 28.6484C22.4012 28.9494 19.9227 29.0577 17.5087 29.0938H17.4911C15.0772 29.0577 12.5986 28.9494 10.0614 28.6484L9.95565 28.6363ZM10.0849 25.1749C7.5887 24.8499 5.06904 24.3021 2.43192 23.4171C2.19112 23.3389 1.9738 23.4352 1.83284 23.6218C1.75062 23.7241 1.68601 23.8566 1.6449 23.995C1.60378 24.1395 1.59204 24.3021 1.60966 24.4586C1.65664 24.8619 1.94444 25.2652 2.58463 25.4579C5.20413 26.2404 7.75902 26.722 10.2434 27.017C12.7455 27.318 15.1594 27.4203 17.5029 27.4504C19.8404 27.4203 22.2544 27.318 24.7564 27.017C27.2408 26.722 29.7957 26.2404 32.4211 25.4579C33.0554 25.2652 33.3432 24.8619 33.3902 24.4586C33.4078 24.3021 33.3961 24.1395 33.355 23.995C33.3197 23.8566 33.2551 23.7241 33.1729 23.6218C33.0319 23.4352 32.8146 23.3389 32.5679 23.4171C29.9308 24.3021 27.4112 24.8499 24.915 25.1749C22.4423 25.506 19.999 25.6144 17.5029 25.6204C15.0008 25.6144 12.5575 25.506 10.0849 25.1749Z"/>
</mask>
<path d="M24.8856 23.5315C24.8798 22.0085 24.2924 20.7443 23.7227 19.5163C23.1119 18.1979 22.5128 16.9157 22.4893 15.2663C22.4658 13.1593 22.8358 11.6905 23.1589 10.4023C23.3821 9.51735 23.5759 8.72273 23.5759 7.87996C23.5759 6.15227 22.9004 4.59313 21.7963 3.46742C20.7038 2.34171 19.1826 1.64341 17.5029 1.64341C15.8231 1.64341 14.3019 2.34171 13.2036 3.46742C12.1053 4.59313 11.424 6.15227 11.424 7.87996C11.424 8.72273 11.6237 9.51735 11.8469 10.4023C12.1699 11.6905 12.534 13.1593 12.5105 15.2663C12.487 16.9157 11.8938 18.1979 11.283 19.5163C10.7074 20.7443 10.126 22.0085 10.1142 23.5315L10.2846 23.5496C12.6867 23.8686 15.0654 23.977 17.5029 23.983C19.9344 23.977 22.3131 23.8686 24.7153 23.5496L24.8856 23.5315ZM10.5782 34.5057C9.79119 34.8789 9.03353 35.4989 8.46382 36.2454C7.88236 37.0099 7.50647 37.8828 7.50647 38.7075C7.50647 40.6339 8.52843 42.2532 10.1965 43.415C12.0289 44.6912 14.6191 45.4256 17.5029 45.4256C20.3867 45.4256 22.9768 44.6912 24.8034 43.415C26.4714 42.2532 27.4993 40.6339 27.4993 38.7075C27.4993 37.8828 27.1175 37.0099 26.536 36.2454C25.9663 35.4989 25.2145 34.8789 24.4216 34.5057C24.2689 34.6381 24.1045 34.7585 23.94 34.8789C22.2779 36.0708 19.9814 36.7571 17.5029 36.7571C15.0184 36.7571 12.7279 36.0708 11.0657 34.8789C10.8954 34.7585 10.7368 34.6381 10.5782 34.5057ZM25.5787 33.2716C26.4127 33.7532 27.188 34.4455 27.7929 35.2341C28.5858 36.2755 29.1027 37.5035 29.1027 38.7075C29.1027 41.2178 27.8105 43.3067 25.7079 44.7695C23.6111 46.2323 20.7038 47.069 17.5029 47.069C14.296 47.069 11.3887 46.2323 9.29196 44.7695C7.19519 43.3067 5.89718 41.2178 5.89718 38.7075C5.89718 37.5035 6.41403 36.2755 7.20693 35.2341C7.81188 34.4455 8.58716 33.7532 9.42117 33.2716C8.92781 32.5793 8.58716 31.8028 8.43446 30.96C7.21868 31.5319 6.11449 32.4649 5.2335 33.5726C3.97073 35.1498 3.18371 37.0521 3.18371 38.7075C3.18371 41.603 4.75188 44.2397 7.28916 46.1601C9.89104 48.1346 13.4973 49.3566 17.5029 49.3566C21.5026 49.3566 25.1147 48.1346 27.7166 46.1601C30.248 44.2397 31.8161 41.603 31.8161 38.7075C31.8161 37.0521 31.0291 35.1498 29.7664 33.5726C28.8854 32.4649 27.7812 31.5319 26.5654 30.96C26.4127 31.8028 26.072 32.5793 25.5787 33.2716ZM26.6535 29.2263C28.3391 29.8704 29.8486 31.0804 31.0115 32.5312C32.4916 34.3853 33.4196 36.6728 33.4196 38.7075C33.4196 42.1508 31.6047 45.2511 28.668 47.4784C25.796 49.6516 21.8491 51 17.5029 51C13.1507 51 9.20386 49.6516 6.33181 47.4784C3.39515 45.2511 1.58029 42.1508 1.58029 38.7075C1.58029 36.6728 2.50828 34.3853 3.99423 32.5312C5.15127 31.0804 6.66071 29.8704 8.34636 29.2263V28.4196C6.33181 28.1066 4.25852 27.6671 2.13826 27.029C0.769772 26.6197 0.135453 25.6505 0.017987 24.6512C-0.0231262 24.284 0.00624039 23.9108 0.106087 23.5616C0.20006 23.2064 0.364513 22.8754 0.575953 22.5984C1.1163 21.9062 1.95618 21.5329 2.93115 21.858C4.85173 22.5021 6.70183 22.9596 8.51668 23.2787C8.58129 21.4968 9.21561 20.1363 9.83231 18.812C10.3727 17.6501 10.8954 16.5184 10.913 15.2482C10.9365 13.352 10.5958 11.9975 10.2963 10.8056C10.0437 9.80028 9.81469 8.89731 9.81469 7.87996C9.81469 5.7068 10.6781 3.73831 12.07 2.31161C13.462 0.884915 15.3826 0 17.5029 0C19.6173 0 21.5437 0.884915 22.9357 2.31161C24.3218 3.73831 25.1852 5.7068 25.1852 7.87996C25.1852 8.89731 24.9561 9.80028 24.7036 10.8056C24.404 11.9975 24.0692 13.352 24.0927 15.2482C24.1045 16.5184 24.6331 17.6501 25.1675 18.812C25.7842 20.1363 26.4186 21.4968 26.4832 23.2787C28.298 22.9596 30.1481 22.5021 32.0746 21.858C33.0495 21.5329 33.8894 21.9062 34.4239 22.5984C34.6412 22.8754 34.7998 23.2064 34.8996 23.5616C34.9936 23.9108 35.023 24.284 34.9819 24.6512C34.8644 25.6505 34.2301 26.6197 32.8675 27.029C30.7413 27.6671 28.6739 28.1066 26.6535 28.4196V29.2263ZM9.95565 28.6363V29.9607C9.95565 31.4055 10.7309 32.6455 11.9819 33.5365C13.3739 34.5358 15.3415 35.1137 17.5029 35.1137C19.6584 35.1137 21.6259 34.5358 23.0238 33.5365C24.2689 32.6455 25.0501 31.4055 25.0501 29.9607V28.6363L24.9385 28.6484C22.4012 28.9494 19.9227 29.0577 17.5087 29.0938H17.4911C15.0772 29.0577 12.5986 28.9494 10.0614 28.6484L9.95565 28.6363ZM10.0849 25.1749C7.5887 24.8499 5.06904 24.3021 2.43192 23.4171C2.19112 23.3389 1.9738 23.4352 1.83284 23.6218C1.75062 23.7241 1.68601 23.8566 1.6449 23.995C1.60378 24.1395 1.59204 24.3021 1.60966 24.4586C1.65664 24.8619 1.94444 25.2652 2.58463 25.4579C5.20413 26.2404 7.75902 26.722 10.2434 27.017C12.7455 27.318 15.1594 27.4203 17.5029 27.4504C19.8404 27.4203 22.2544 27.318 24.7564 27.017C27.2408 26.722 29.7957 26.2404 32.4211 25.4579C33.0554 25.2652 33.3432 24.8619 33.3902 24.4586C33.4078 24.3021 33.3961 24.1395 33.355 23.995C33.3197 23.8566 33.2551 23.7241 33.1729 23.6218C33.0319 23.4352 32.8146 23.3389 32.5679 23.4171C29.9308 24.3021 27.4112 24.8499 24.915 25.1749C22.4423 25.506 19.999 25.6144 17.5029 25.6204C15.0008 25.6144 12.5575 25.506 10.0849 25.1749Z" fill="black" stroke="black" stroke-width="20" mask="url(#path-1-inside-1)"/>
</svg>
