<svg width="35" height="51" viewBox="0 0 35 51" fill="none" xmlns="http://www.w3.org/2000/svg">
<path d="M4.62566 0.00266191C4.35577 0.0533925 4.10602 0.282228 3.92495 0.644711C3.74387 1.00719 3.6444 1.47744 3.64585 1.9641V6.54078H1.09377C1.05581 6.53723 1.01778 6.53723 0.979833 6.54078C0.709935 6.59151 0.460189 6.82035 0.279114 7.18283C0.098039 7.54531 -0.00143567 8.01556 1.56599e-05 8.50222V49.0386C4.46627e-05 49.5588 0.115288 50.0576 0.320399 50.4254C0.525511 50.7933 0.803694 50.9999 1.09377 51H33.9062C34.1963 50.9999 34.4745 50.7933 34.6796 50.4254C34.8847 50.0576 35 49.5588 35 49.0386V8.50222C35 7.98203 34.8847 7.48316 34.6796 7.11533C34.4745 6.7475 34.1963 6.54083 33.9062 6.54078H31.3542V1.9641C31.3541 1.44391 31.2389 0.94504 31.0338 0.577211C30.8287 0.209382 30.5505 0.00271392 30.2604 0.00266191C25.8514 -0.00387621 21.2753 0.894232 17.5 5.49877C13.7247 0.894232 9.14859 -0.00381737 4.7396 0.00266191C4.70165 -0.000887303 4.66362 -0.000887303 4.62566 0.00266191ZM5.83335 4.00726C9.73146 4.15783 13.4564 5.17526 16.4063 8.84956V44.7888C13.1113 41.4715 9.10106 40.7134 5.83335 40.6003V4.00726ZM29.1667 4.00726V40.6003C25.899 40.7134 21.8887 41.4715 18.5938 44.7888V8.84956C21.5436 5.17526 25.2686 4.15783 29.1667 4.00726ZM2.18751 10.4637H3.64585V42.5004C3.64588 43.0206 3.76112 43.5195 3.96623 43.8873C4.17134 44.2552 4.44953 44.4618 4.7396 44.4619C7.56042 44.4619 11.127 44.9901 14.0365 47.0771H2.18751V10.4637ZM31.3542 10.4637H32.8125V47.0771H20.9635C23.873 44.9901 27.4396 44.4619 30.2604 44.4619C30.5505 44.4618 30.8287 44.2552 31.0338 43.8873C31.2389 43.5195 31.3541 43.0206 31.3542 42.5004V10.4637Z" fill="black"/>
</svg>
