<svg width="35" height="51" viewBox="0 0 35 51" fill="none" xmlns="http://www.w3.org/2000/svg">
<path d="M17.5 51C17.0417 51 16.5834 50.8773 16.1645 50.6302L1.60781 42.0144C0.616875 41.4295 0 40.2342 0 38.8923V12.1061C0 10.7674 0.615781 9.57206 1.60781 8.98556L16.1623 0.372938C17.0002 -0.124313 17.9998 -0.124313 18.8366 0.372938L33.3911 8.98556C34.3842 9.57206 35 10.769 35 12.1061V38.8923C35 40.2326 34.3842 41.4295 33.39 42.0144L18.8366 50.6287C18.4177 50.8757 17.9583 51 17.5 51ZM2.19406 38.8811C2.21484 38.8811 2.28812 38.9767 2.43031 39.0596L16.987 47.6738C17.2944 47.8539 17.7078 47.8539 18.0163 47.6738L32.5697 39.0596C32.5697 39.0596 32.5697 39.0596 32.5708 39.0596C32.7392 38.9608 32.8125 38.8429 32.8234 38.811L32.8125 12.1061C32.8125 12.1539 32.7403 12.0392 32.5675 11.9372L18.0141 3.32456C17.7067 3.14447 17.2944 3.14287 16.987 3.32456L2.43141 11.9372C2.26188 12.0392 2.18859 12.1555 2.17656 12.189L2.1875 38.8923C2.1875 38.8843 2.18969 38.8811 2.19406 38.8811Z" fill="black"/>
<path d="M17.5005 51.0001C16.8968 51.0001 16.4068 50.2877 16.4068 49.4064V21.7979L1.31957 13.0051C0.758473 12.6768 0.486129 11.7509 0.710348 10.9333C0.934567 10.1157 1.56894 9.71884 2.13222 10.0456L17.9074 19.2399C18.3219 19.4806 18.5943 20.0671 18.5943 20.7189V49.4064C18.5943 50.2877 18.1043 51.0001 17.5005 51.0001Z" fill="black"/>
<path d="M17.4999 22.3125C17.0657 22.3125 16.6555 21.9332 16.4838 21.31C16.2596 20.4924 16.5319 19.5649 17.093 19.2382L32.8682 10.0438C33.4238 9.72188 34.0658 10.1139 34.29 10.9315C34.5143 11.7491 34.2408 12.6767 33.6797 13.0034L17.9057 22.1978C17.7733 22.2759 17.6355 22.3125 17.4999 22.3125Z" fill="black"/>
<path d="M26.2503 17.5313C26.1059 17.5313 25.9593 17.4899 25.8193 17.4007L10.5068 7.83815C9.9523 7.4939 9.69417 6.55678 9.93261 5.74715C10.17 4.93912 10.8131 4.5614 11.3687 4.91043L26.6812 14.4729C27.2368 14.8188 27.4939 15.7559 27.2554 16.5655C27.0782 17.1696 26.6746 17.5313 26.2503 17.5313Z" fill="black"/>
<path d="M26.25 23.9065C25.6452 23.9065 25.1562 23.1925 25.1562 22.3127V15.9377C25.1562 15.058 25.6452 14.344 26.25 14.344C26.8548 14.344 27.3438 15.058 27.3438 15.9377V22.3127C27.3438 23.1925 26.8548 23.9065 26.25 23.9065Z" fill="black"/>
</svg>
