<svg width="35" height="53" viewBox="0 0 35 53" fill="none" xmlns="http://www.w3.org/2000/svg">
<path d="M29.6001 14.6281C27.1943 12.362 24.6926 11.2095 22.7929 10.6196L23.2813 0H12.0776L12.5677 10.6516C10.6128 11.2677 7.90158 12.4356 5.439 14.6007C-0.463051 19.789 -0.00603663 31.5154 0.016566 32.0118L0.0342079 32.4014L1.91409 34.8507L3.90146 44.5113L4.0448 44.7172C7.65791 49.9067 13.4971 52.2612 13.7441 52.3593L15.3599 52.9989L15.1929 43.5083L13.4855 36.686L8.76986 32.5926L7.49694 28.903L13.4855 31.6449L13.9018 36.6267L17.3412 42.406L21.1048 36.6552L21.5233 31.6455L27.5119 28.9042L26.2389 32.5937L21.5233 36.6872L19.8159 43.5094L19.6494 53L21.2653 52.3605C21.5117 52.2629 27.3514 49.9078 30.964 44.7184L31.1079 44.5124L33.0953 34.8518L34.9807 32.3952L34.9933 31.9958C35.0082 31.508 35.3015 19.9989 29.6001 14.6281ZM20.8325 2.41672L20.01 20.2962H15.3489L14.5264 2.41672H20.8325ZM30.9254 33.7935L28.927 43.5071C26.8277 46.4185 23.8635 48.3337 22.0486 49.3167L22.1451 43.8392L23.5961 38.0422L28.2241 34.024L31.539 24.4188L19.3165 30.015L18.8313 35.8217L17.4344 37.9566L16.1802 35.8491L15.6929 30.015L3.46981 24.4182L6.78413 34.0234L11.4127 38.0416L12.8637 43.8386L12.9602 49.3162C11.1448 48.3332 8.18108 46.4179 6.08179 43.5066L4.08339 33.7929L2.34023 31.5217C2.32093 29.9106 2.4119 23.5156 4.88937 19.0713L7.90544 22.3381L9.59347 20.6687L6.29349 17.0944C6.50242 16.8651 6.71908 16.6449 6.95062 16.4418C8.88066 14.745 11.0169 13.7455 12.6834 13.1613L13.1228 22.7118H22.2361L22.6771 13.1276C24.2323 13.6816 26.17 14.6646 28.0284 16.415C28.3068 16.6768 28.5676 16.9592 28.8134 17.2576L25.38 21.0202L27.0774 22.6792L30.1514 19.3109C32.4905 23.7975 32.6608 29.9379 32.6631 31.5297L30.9254 33.7935Z" fill="black"/>
</svg>
