<svg width="279" height="334" viewBox="0 0 279 334" fill="none" xmlns="http://www.w3.org/2000/svg">
<g opacity="0.05">
<path d="M49.9054 157.586C39.3832 206.874 71.7437 226.399 139.056 202.258C98.9801 241.749 96.4298 285.79 110.767 310.704C121.759 329.806 142.992 335.368 162.956 332.882C115.344 308.2 117.288 246.497 153.914 209.845C190.54 173.194 226.104 145.802 237.882 95.1921C249.66 44.5825 209.256 0.905006 161.899 0.0101445C125.613 -0.675506 71.7826 33.4374 87.501 89.6212C96.4204 121.502 118.275 137.159 159.149 135.939V129.307L158.4 129.174C126.723 123.566 122.484 122.816 106.272 100.179C86.1671 52.0118 121.842 13.6564 161.899 16.6166C193.696 18.9664 204.147 30.3049 213.454 52.6945C218.39 72.6045 216.676 84.1109 209.805 108.032C196.277 155.125 91.5577 195.104 62.5432 111.692C40.8638 163.687 98.0235 198.598 167.98 168.621C128.163 200.455 67.6183 200.919 49.9054 157.586Z" fill="black"/>
<path d="M19.5244 178.097L19.5258 178.111L19.5299 178.152M161.689 47.1625L138.23 37.5689L135.65 43.921L159.108 53.5146L111.595 158.571C114.715 159.367 122.468 160.003 123.016 160.003L165.572 56.158L188.251 65.4329L190.831 59.0808L168.152 49.8058C175.5 50.413 182.977 47.629 186 40.3685C189.388 32.2326 185.856 23.038 177.765 19.5972C170.147 16.3578 161.204 19.1438 157.543 26.5888C153.871 34.0579 156.041 44.0141 161.689 47.1625ZM171.205 43.6218C176.403 43.6218 180.617 39.4887 180.617 34.3901C180.617 29.2916 176.403 25.1584 171.205 25.1584C166.006 25.1584 161.793 29.2916 161.793 34.3901C161.793 39.4887 166.006 43.6218 171.205 43.6218ZM96.2056 192.67C77.3105 231.499 38.2337 231.692 26.241 178.651C32.2446 184.022 36.3883 186.735 44.1256 191.441C31.3615 173.168 26.6209 161.755 22.2415 139.429C17.7971 163.948 12.6958 177.074 0 199.63C7.89061 195.958 12.1451 191.126 19.3735 176.612L19.5244 178.097L19.5258 178.111L19.5299 178.152C21.7326 199.838 23.0149 212.463 33.4284 229.66C58.2178 261.712 62.5672 273.237 65.384 290.459C77.0798 278.794 84.524 272.44 114.008 264.511C139.706 260.47 152.89 255.5 172.889 238.862C171.049 248.171 171.298 252.538 172.823 259.607C178.756 244.633 182.647 237.412 188.949 225.721L188.949 225.721C191.367 221.236 194.139 216.092 197.517 209.601C181.297 221.964 171.243 224.372 144.308 230.653C144.298 233.836 162.165 235.485 167.561 234.866C133.178 255.606 90.1957 241.999 107.697 197.369L115.243 179.634C109.875 179.477 107.175 179.275 102.923 178.414L96.2056 192.67ZM52.7077 231.863C74.444 231.802 83.1647 228.309 93.6872 216.849C96.1981 232.58 99.1008 240.823 108.175 252.237C92.8997 254.205 84.3419 258.82 71.5847 271.178C69.5765 252.166 65.2122 243.184 52.7077 231.863Z" fill="#034B88"/>
<path d="M19.5244 178.097L19.5258 178.111L19.5299 178.152M161.689 47.1625L138.23 37.5689L135.65 43.921L159.108 53.5146L111.595 158.571C114.715 159.367 122.468 160.003 123.016 160.003L165.572 56.158L188.251 65.4329L190.831 59.0808L168.152 49.8058C175.5 50.413 182.977 47.629 186 40.3685C189.388 32.2326 185.856 23.038 177.765 19.5972C170.147 16.3578 161.204 19.1438 157.543 26.5888C153.871 34.0579 156.041 44.0141 161.689 47.1625ZM171.205 43.6218C176.403 43.6218 180.617 39.4887 180.617 34.3901C180.617 29.2916 176.403 25.1584 171.205 25.1584C166.006 25.1584 161.793 29.2916 161.793 34.3901C161.793 39.4887 166.006 43.6218 171.205 43.6218ZM96.2056 192.67C77.3105 231.499 38.2337 231.692 26.241 178.651C32.2446 184.022 36.3883 186.735 44.1256 191.441C31.3615 173.168 26.6209 161.755 22.2415 139.429C17.7971 163.948 12.6958 177.074 0 199.63C7.89061 195.958 12.1451 191.126 19.3735 176.612L19.5244 178.097L19.5258 178.111L19.5299 178.152C21.7326 199.838 23.0149 212.463 33.4284 229.66C58.2178 261.712 62.5672 273.237 65.384 290.459C77.0798 278.794 84.524 272.44 114.008 264.511C139.706 260.47 152.89 255.5 172.889 238.862C171.049 248.171 171.298 252.538 172.823 259.607C178.756 244.633 182.647 237.412 188.949 225.721L188.949 225.721C191.367 221.236 194.139 216.092 197.517 209.601C181.297 221.964 171.243 224.372 144.308 230.653C144.298 233.836 162.165 235.485 167.561 234.866C133.178 255.606 90.1957 241.999 107.697 197.369L115.243 179.634C109.875 179.477 107.175 179.275 102.923 178.414L96.2056 192.67ZM52.7077 231.863C74.444 231.802 83.1647 228.309 93.6872 216.849C96.1981 232.58 99.1008 240.823 108.175 252.237C92.8997 254.205 84.3419 258.82 71.5847 271.178C69.5765 252.166 65.2122 243.184 52.7077 231.863Z" stroke="black"/>
<path d="M175.144 88.3127L262.212 63.8098L264.488 71.9511L177.42 96.454L175.144 88.3127Z" fill="black"/>
<path d="M166.957 109.273L276.724 78.3819L279 86.5232L169.233 117.414L166.957 109.273Z" fill="black"/>
<path d="M170.976 126.357L272.56 97.7688L274.835 105.91L173.251 134.498L170.976 126.357Z" fill="black"/>
</g>
</svg>
