<svg width="35" height="51" viewBox="0 0 35 51" fill="none" xmlns="http://www.w3.org/2000/svg">
<path d="M29.6001 4.82373C27.1943 2.09674 24.6926 0.709897 22.7929 0L12.5677 0.0384377C10.6128 0.779916 7.90158 2.1853 5.439 4.79078C-0.463051 11.0343 -0.00603664 25.1457 0.016566 25.743L0.0342079 26.212L1.91409 29.1593L3.90146 40.7848L4.0448 41.0326C7.65791 47.2775 13.4971 50.1109 13.7441 50.229L15.3599 50.9986L15.1929 39.5778L13.4855 31.368L8.76986 26.442L7.49694 22.002L13.4855 25.3016L13.9018 31.2966L17.3412 38.2514L21.1048 31.3309L21.5233 25.3023L27.5119 22.0034L26.2389 26.4433L21.5233 31.3694L19.8159 39.5792L19.6494 51L21.2653 50.2304C21.5117 50.113 27.3514 47.2789 30.964 41.034L31.1079 40.7861L33.0953 29.1607L34.9807 26.2044L34.9933 25.7238C35.0082 25.1368 35.3015 11.287 29.6001 4.82373ZM30.9254 27.8872L28.927 39.5764C26.8277 43.0799 23.8635 45.3847 22.0486 46.5676L22.1451 39.976L23.5961 32.9999L28.2241 28.1645L31.539 16.6057L19.3165 23.3401L18.8313 30.3278L17.4344 32.8969L16.1802 30.3608L15.6929 23.3401L3.46981 16.605L6.78413 28.1638L11.4127 32.9992L12.8637 39.9753L12.9602 46.5669C11.1448 45.384 8.18108 43.0792 6.08179 39.5757L4.08339 27.8865L2.34023 25.1533C2.32093 23.2145 2.4119 15.5189 4.88937 10.1706L7.90544 14.1018L9.59347 12.093L6.29349 7.7917C6.50242 7.51571 6.71908 7.2507 6.95062 7.00629C8.88066 4.96447 11.0169 3.76163 12.6834 3.0586L22.6771 3.01809C24.2323 3.68474 26.17 4.86767 28.0284 6.97402C28.3068 7.28915 28.5676 7.62899 28.8134 7.98806L25.38 12.5159L27.0774 14.5124L30.1514 10.459C32.4905 15.858 32.6608 23.2474 32.6631 25.1629L30.9254 27.8872Z" fill="black"/>
</svg>
