<svg width="544" height="205" viewBox="0 0 544 205" fill="none" xmlns="http://www.w3.org/2000/svg">
<path d="M29.335 100.631C23.1499 129.604 42.1718 141.08 81.7388 126.89C58.1818 150.103 56.6826 175.991 65.11 190.636C71.5714 201.865 84.0525 205.134 95.7877 203.672C67.8005 189.164 68.9434 152.894 90.4728 131.35C112.002 109.806 132.907 93.7042 139.831 63.9552C146.754 34.2062 123.003 8.53198 95.1662 8.00596C73.8372 7.60293 42.1947 27.655 51.4342 60.6806C56.6771 79.4207 69.5238 88.624 93.5499 87.9067V84.0084L93.1098 83.9305C74.4894 80.6341 71.9979 80.193 62.4681 66.8868C50.6501 38.5733 71.6204 16.0274 95.1662 17.7675C113.857 19.1487 120 25.8137 125.471 38.9745C128.373 50.678 127.365 57.4415 123.326 71.5024C115.374 99.1849 53.8188 122.685 36.7637 73.6543C24.0202 104.217 57.6195 124.738 98.7406 107.118C75.336 125.83 39.7469 126.103 29.335 100.631Z" fill="black" stroke="black"/>
<path d="M95.0428 35.7229L81.2536 30.0836L79.7368 33.8175L93.5261 39.4568L65.5971 101.21C67.4309 101.678 71.9886 102.052 72.3107 102.052L97.3254 41.0105L110.657 46.4625L112.173 42.7286L98.8421 37.2767C103.161 37.6336 107.556 35.9971 109.333 31.7293C111.325 26.9469 109.249 21.5422 104.492 19.5197C100.015 17.6154 94.7578 19.2531 92.6061 23.6294C90.4475 28.0199 91.7229 33.8722 95.0428 35.7229ZM100.636 33.6416C103.692 33.6416 106.169 31.2121 106.169 28.2151C106.169 25.2181 103.692 22.7886 100.636 22.7886C97.5809 22.7886 95.1039 25.2181 95.1039 28.2151C95.1039 31.2121 97.5809 33.6416 100.636 33.6416ZM56.5509 121.254C45.4442 144.078 22.4743 144.192 15.4248 113.013C18.9538 116.171 21.3895 117.766 25.9376 120.532C18.4347 109.791 15.6481 103.082 13.0739 89.9586C10.4614 104.371 7.46279 112.087 0 125.345C4.63821 123.187 7.13907 120.347 11.388 111.815L11.4767 112.688L11.4775 112.696L11.48 112.72C12.7747 125.468 13.5285 132.889 19.6497 142.998C34.2212 161.838 36.7779 168.613 38.4336 178.736C45.3085 171.879 49.6843 168.144 67.0153 163.484C82.1211 161.108 89.8709 158.186 101.626 148.406C100.545 153.879 100.692 156.445 101.588 160.6C105.075 151.799 107.363 147.554 111.067 140.683L111.067 140.682L111.067 140.682L111.067 140.682C112.488 138.045 114.117 135.022 116.103 131.206C106.569 138.474 100.659 139.889 84.8265 143.581C84.8205 145.452 95.3231 146.421 98.4946 146.057C78.2836 158.249 53.0183 150.25 63.3056 124.016L67.7417 113.592C64.5862 113.499 62.9989 113.38 60.4997 112.874L56.5509 121.254ZM30.9823 144.293C43.7592 144.257 48.8854 142.203 55.0706 135.467C56.5465 144.714 58.2528 149.559 63.587 156.268C54.6077 157.425 49.5773 160.138 42.0785 167.402C40.898 156.227 38.3326 150.947 30.9823 144.293Z" fill="#034B88"/>
<path d="M95.0428 35.7229L81.2536 30.0836L79.7368 33.8175L93.5261 39.4568L65.5971 101.21C67.4309 101.678 71.9886 102.052 72.3107 102.052L97.3254 41.0105L110.657 46.4625L112.173 42.7286L98.8421 37.2767C103.161 37.6336 107.556 35.9971 109.333 31.7293C111.325 26.9469 109.249 21.5422 104.492 19.5197C100.015 17.6154 94.7578 19.2531 92.6061 23.6294C90.4475 28.0199 91.7229 33.8722 95.0428 35.7229ZM100.636 33.6416C103.692 33.6416 106.169 31.2121 106.169 28.2151C106.169 25.2181 103.692 22.7886 100.636 22.7886C97.5809 22.7886 95.1039 25.2181 95.1039 28.2151C95.1039 31.2121 97.5809 33.6416 100.636 33.6416ZM56.5509 121.254C45.4442 144.078 22.4743 144.192 15.4248 113.013C18.9538 116.171 21.3895 117.766 25.9376 120.532C18.4347 109.791 15.6481 103.082 13.0739 89.9586C10.4614 104.371 7.46279 112.087 0 125.345C4.63821 123.187 7.13907 120.347 11.388 111.815L11.4767 112.688L11.4775 112.696L11.48 112.72C12.7747 125.468 13.5285 132.889 19.6497 142.998C34.2212 161.838 36.7779 168.613 38.4336 178.736C45.3085 171.879 49.6843 168.144 67.0153 163.484C82.1211 161.108 89.8709 158.186 101.626 148.406C100.545 153.879 100.692 156.445 101.588 160.6C105.075 151.799 107.363 147.554 111.067 140.683L111.067 140.682L111.067 140.682L111.067 140.682C112.488 138.045 114.117 135.022 116.103 131.206C106.569 138.474 100.659 139.889 84.8265 143.581C84.8205 145.452 95.3231 146.421 98.4946 146.057C78.2836 158.249 53.0183 150.25 63.3056 124.016L67.7417 113.592C64.5862 113.499 62.9989 113.38 60.4997 112.874L56.5509 121.254ZM30.9823 144.293C43.7592 144.257 48.8854 142.203 55.0706 135.467C56.5465 144.714 58.2528 149.559 63.587 156.268C54.6077 157.425 49.5773 160.138 42.0785 167.402C40.898 156.227 38.3326 150.947 30.9823 144.293Z" stroke="black"/>
<path d="M102.952 59.9117L154.132 45.5085L155.47 50.2941L104.29 64.6972L102.952 59.9117Z" fill="black"/>
<path d="M98.1396 72.2324L162.662 54.0742L164 58.8598L99.4773 77.0179L98.1396 72.2324Z" fill="black"/>
<path d="M100.502 82.2746L160.214 65.4701L161.552 70.2557L101.84 87.0601L100.502 82.2746Z" fill="black"/>
<path d="M187 0V198.5" stroke="black" stroke-width="2"/>
<path d="M233.094 68.6562L233.969 74.6562L235.25 69.25L244.25 37.5H249.312L258.094 69.25L259.344 74.75L260.312 68.625L267.375 37.5H273.406L262.375 83H256.906L247.531 49.8438L246.812 46.375L246.094 49.8438L236.375 83H230.906L219.906 37.5H225.906L233.094 68.6562ZM305.188 62.9062H286.094V83H280.094V37.5H308.281V42.4375H286.094V58H305.188V62.9062ZM330.531 75.0312L343.531 37.5H350.094L333.219 83H327.906L311.062 37.5H317.594L330.531 75.0312Z" fill="#F98700"/>
<path d="M239.969 139.594H229.281V158H223.25V112.5H238.312C243.438 112.5 247.375 113.667 250.125 116C252.896 118.333 254.281 121.729 254.281 126.188C254.281 129.021 253.51 131.49 251.969 133.594C250.448 135.698 248.323 137.271 245.594 138.312L256.281 157.625V158H249.844L239.969 139.594ZM229.281 134.688H238.5C241.479 134.688 243.844 133.917 245.594 132.375C247.365 130.833 248.25 128.771 248.25 126.188C248.25 123.375 247.406 121.219 245.719 119.719C244.052 118.219 241.635 117.458 238.469 117.438H229.281V134.688ZM297.688 158H291.656V136.969H268.719V158H262.719V112.5H268.719V132.062H291.656V112.5H297.688V158ZM321.344 135.344L333.219 112.5H340.031L324.344 141.031V158H318.344V141.031L302.656 112.5H309.531L321.344 135.344ZM356.281 143.656L357.156 149.656L358.438 144.25L367.438 112.5H372.5L381.281 144.25L382.531 149.75L383.5 143.625L390.562 112.5H396.594L385.562 158H380.094L370.719 124.844L370 121.375L369.281 124.844L359.562 158H354.094L343.094 112.5H349.094L356.281 143.656ZM427.031 146.125H407.969L403.688 158H397.5L414.875 112.5H420.125L437.531 158H431.375L427.031 146.125ZM409.781 141.188H425.25L417.5 119.906L409.781 141.188ZM407.562 105.469C407.562 104.531 407.844 103.75 408.406 103.125C408.99 102.479 409.844 102.156 410.969 102.156C412.094 102.156 412.948 102.479 413.531 103.125C414.115 103.75 414.406 104.531 414.406 105.469C414.406 106.406 414.115 107.188 413.531 107.812C412.948 108.438 412.094 108.75 410.969 108.75C409.844 108.75 408.99 108.438 408.406 107.812C407.844 107.188 407.562 106.406 407.562 105.469ZM421 105.531C421 104.594 421.281 103.802 421.844 103.156C422.427 102.51 423.281 102.188 424.406 102.188C425.531 102.188 426.385 102.51 426.969 103.156C427.552 103.802 427.844 104.594 427.844 105.531C427.844 106.469 427.552 107.25 426.969 107.875C426.385 108.5 425.531 108.812 424.406 108.812C423.281 108.812 422.427 108.5 421.844 107.875C421.281 107.25 421 106.469 421 105.531ZM449.688 153.094H471.25V158H443.656V112.5H449.688V153.094ZM484.125 153.094H505.688V158H478.094V112.5H484.125V153.094ZM538.25 136.969H518.531V153.094H541.438V158H512.531V112.5H541.125V117.438H518.531V132.062H538.25V136.969Z" fill="black"/>
</svg>
